<?xml version="1.0" encoding="UTF-8" standalone="no"?>
<!-- Created with Inkscape (http://www.inkscape.org/) -->

<svg
   xmlns:dc="http://purl.org/dc/elements/1.1/"
   xmlns:cc="http://creativecommons.org/ns#"
   xmlns:rdf="http://www.w3.org/1999/02/22-rdf-syntax-ns#"
   xmlns:svg="http://www.w3.org/2000/svg"
   xmlns="http://www.w3.org/2000/svg"
   xmlns:sodipodi="http://sodipodi.sourceforge.net/DTD/sodipodi-0.dtd"
   xmlns:inkscape="http://www.inkscape.org/namespaces/inkscape"
   width="210mm"
   height="297mm"
   id="svg2"
   version="1.1"
   inkscape:version="0.48.4 r9939"
   sodipodi:docname="logo.svg"
   inkscape:export-filename="/home/georf/workspace/wettkampf-manager-building-tools/dokumentation/logo.png"
   inkscape:export-xdpi="33.049881"
   inkscape:export-ydpi="33.049881">
  <defs
     id="defs4">
    <filter
       inkscape:collect="always"
       id="filter3909"
       x="-0.01979497"
       width="1.0395899"
       y="-0.19850444"
       height="1.3970089">
      <feGaussianBlur
         inkscape:collect="always"
         stdDeviation="5.365575"
         id="feGaussianBlur3911" />
    </filter>
  </defs>
  <sodipodi:namedview
     id="base"
     pagecolor="#ffffff"
     bordercolor="#666666"
     borderopacity="1.0"
     inkscape:pageopacity="0.0"
     inkscape:pageshadow="2"
     inkscape:zoom="0.35"
     inkscape:cx="153.90325"
     inkscape:cy="661.59312"
     inkscape:document-units="px"
     inkscape:current-layer="layer1"
     showgrid="false"
     inkscape:window-width="1600"
     inkscape:window-height="845"
     inkscape:window-x="-2"
     inkscape:window-y="-3"
     inkscape:window-maximized="1" />
  <metadata
     id="metadata7">
    <rdf:RDF>
      <cc:Work
         rdf:about="">
        <dc:format>image/svg+xml</dc:format>
        <dc:type
           rdf:resource="http://purl.org/dc/dcmitype/StillImage" />
        <dc:title></dc:title>
      </cc:Work>
    </rdf:RDF>
  </metadata>
  <g
     inkscape:label="Ebene 1"
     inkscape:groupmode="layer"
     id="layer1">
    <g
       transform="translate(-367.63185,53.611118)"
       id="layer1-6"
       inkscape:label="Layer 1"
       style="fill:#000000;fill-opacity:0.20242915">
      <path
         inkscape:connector-curvature="0"
         id="path3050"
         d="m 200.4623,647.03613 c -7.31546,-4.97098 -6.74298,9.84856 -6.74298,-174.55363 0,-165.79805 0.005,-166.18928 2.05041,-169.49925 1.12772,-1.82469 3.54334,-4.24031 5.36803,-5.36803 3.30924,-2.04523 3.72921,-2.05041 166.08156,-2.05041 162.35235,0 162.77232,0.005 166.08156,2.05041 1.82469,1.12772 4.24031,3.54334 5.36803,5.36803 2.04571,3.31002 2.05041,3.69941 2.05041,169.71746 l 0,166.39983 -2.52868,3.72129 c -4.9687,7.3121 9.48004,6.74298 -171.18953,6.74298 l -162.81752,0 -3.72129,-2.52868 z m 256.72518,-7.72132 c -0.37991,-1.7875 -1.38541,-4.0375 -2.23444,-5 -1.45486,-1.64929 -8.81486,-1.75 -127.88871,-1.75 -109.82151,0 -126.34501,0.19002 -126.34501,1.45295 0,2.62445 2.18844,6.324 4.36408,7.37746 1.43393,0.69432 43.32674,1.05647 127.46538,1.10191 l 125.32945,0.0677 -0.69075,-3.25 z m 71.87452,2.13973 c 1.34022,-0.61065 2.9364,-2.20683 3.54705,-3.54705 0.79199,-1.73824 1.11027,-33.67016 1.11027,-111.38973 0,-107.01993 -0.0343,-108.95295 -1.93261,-108.95295 -2.01446,0 -2.51942,1.00983 -3.62536,7.25 -0.36554,2.0625 -1.02963,3.75 -1.47577,3.75 -0.44614,0 -1.30699,1.5024 -1.91302,3.33867 -1.6942,5.13348 -5.44003,9.58756 -11.77666,14.00334 -5.76776,4.01936 -5.79108,4.02547 -15.27658,4.00157 -7.77819,-0.0196 -10.2334,-0.41446 -13.54649,-2.17865 -7.69167,-4.09573 -15.45351,-14.67492 -15.45351,-21.06272 0,-3.24732 -2.37332,-4.04759 -15.08407,-5.08621 -6.82876,-0.55799 -15.11593,-1.48914 -18.41593,-2.06922 -9.9782,-1.75398 -51.8195,-4.69483 -54.24954,-3.81298 -2.51916,0.91419 -6.46524,6.70966 -5.56279,8.16986 0.32121,0.51973 3.33539,2.20478 6.69817,3.74456 3.36279,1.53978 7.66409,3.95884 9.55844,5.37569 3.56433,2.66588 5.96607,3.20555 7.60572,1.709 2.39043,-2.18179 10.37356,-3.80478 17.45,-3.54762 7.6586,0.27832 15.44169,2.83214 17.99034,5.90307 2.0236,2.43829 5.91549,1.88954 7.00966,-0.98836 0.88572,-2.32961 1.41565,-2.5 7.77525,-2.5 3.97481,0 7.32586,0.50111 8.02475,1.2 0.7013,0.7013 1.2,4.06571 1.2,8.09571 0,9.16201 -1.80447,12.29792 -7.5744,13.16318 -4.73801,0.7105 -5.4256,1.71845 -5.4256,7.95342 0,4.25384 -2.30129,9.76003 -6.93276,16.58769 -2.42985,3.58205 -11.00197,10 -13.35648,10 -0.72092,0 -1.80134,0.49058 -2.40095,1.09019 -0.66483,0.66483 -3.57159,0.90866 -7.45,0.62494 -16.10142,-1.1779 -23.69487,-5.68709 -29.37207,-17.44191 -2.45504,-5.08325 -2.71611,-5.28502 -9.5075,-7.34784 -3.84073,-1.16659 -7.20392,-2.47829 -7.47376,-2.91489 -0.26983,-0.43661 -3.30668,-2.14093 -6.74854,-3.78738 -20.93111,-10.01261 -20.52986,-9.97834 -28.50794,-2.4342 -3.62437,3.42723 -6.25,6.75255 -6.25,7.91552 0,1.75371 4.3132,9.08795 21.34509,36.29557 2.23794,3.575 5.27818,7.9239 6.75609,9.66423 3.86964,4.55674 5.26146,9.5926 4.48295,16.22012 -0.79735,6.78781 -3.68031,11.27195 -11.46115,17.82657 -3.09264,2.60525 -8.18175,7.16109 -11.30914,10.12409 -3.1274,2.963 -6.7274,6.08703 -8,6.94231 -1.27261,0.85527 -5.03634,4.06776 -8.36384,7.13886 -3.32749,3.0711 -8.48237,7.60882 -11.45528,10.08382 -7.85028,6.53549 -18.99472,17.19258 -18.99472,18.16406 0,0.45977 40.25383,0.83594 89.45295,0.83594 52.88931,0 90.39186,0.38046 91.75,0.93079 1.26338,0.51194 3.49738,1.18618 4.96445,1.49832 1.6654,0.35434 3.52381,1.97684 4.94722,4.31921 1.25389,2.06342 2.52862,3.97668 2.83272,4.25168 1.32891,1.20175 16.01468,23.90182 17.95281,27.75 l 2.1405,4.25 10.93262,0 c 6.01294,0 12.02918,-0.49962 13.36941,-1.11027 z M 246.72306,592.31481 c 0.004,-8.40334 1.63894,-11.89503 7.66112,-16.36494 2.10933,-1.56562 5.18514,-4.2104 6.83514,-5.87728 1.65,-1.66687 6.15,-5.64743 10,-8.84568 7.1753,-5.96062 12.33815,-10.44083 18.5,-16.05389 1.925,-1.75356 5.525,-4.79589 8,-6.76074 2.475,-1.96485 6.6375,-5.59171 9.25,-8.0597 6.93929,-6.55543 6.60177,-8.76105 -3.63962,-23.78423 -5.78965,-8.49289 -7.37723,-10.02115 -9.56849,-9.21097 -3.38986,1.25334 -35.41336,30.96759 -41.02438,38.06607 -4.14543,5.24435 -8.48306,7.14136 -16.32919,7.14136 -4.1509,0 -6.03579,-0.97515 -20.13398,-10.41635 l -15.55434,-10.41636 0,38.91636 0,38.91635 23,0 23,0 0.004,-7.25 z M 241.2609,492.31136 c 2.13894,-2.48666 7.16134,-16.4603 10.5331,-29.30587 3.28591,-12.51848 8.48832,-20.14039 19.69244,-28.85086 3.60081,-2.7994 8.87742,-7.11482 11.72579,-9.58982 2.84837,-2.475 7.73918,-6.525 10.86846,-9 11.34545,-8.9733 18.63863,-15.25112 18.63863,-16.04377 0,-0.44527 0.63372,-0.95508 1.40827,-1.13291 0.77455,-0.17782 3.58705,-2.20446 6.25,-4.50363 24.79603,-21.40868 25.63919,-21.8843 38.34173,-21.62804 9.20267,0.18565 37.90697,2.85823 62.5,5.81921 6.6,0.79463 18.975,2.14911 27.5,3.00995 18.86219,1.90467 24.29936,3.04751 26.60153,5.59138 3.03048,3.34864 8.33366,6.17755 9.67671,5.1619 1.89748,-1.43492 9.09246,-3.27409 12.8085,-3.27409 4.12521,0 13.91326,2.20449 13.91326,3.13358 0,0.91766 9.74071,7.86642 11.02707,7.86642 0.56234,0 1.45016,-1.125 1.97293,-2.5 0.79656,-2.09512 1.60231,-2.5 4.97525,-2.5 l 4.02475,0 0,-42.45295 c 0,-28.98306 -0.35228,-43.22611 -1.11027,-44.88973 -0.61065,-1.34023 -2.20683,-2.9364 -3.54705,-3.54705 -3.50348,-1.59629 -320.22364,-1.57726 -323.72804,0.0195 -1.3637,0.62134 -2.96771,2.30884 -3.56446,3.75 -0.75773,1.82995 -1.00433,27.65476 -0.81758,85.62028 l 0.2674,83 2.43034,2.75 c 1.33668,1.5125 2.8651,2.75 3.39649,2.75 1.21586,0 12.05649,7.10062 12.5065,8.19177 0.18334,0.44453 0.90109,0.80823 1.59502,0.80823 0.69392,0 2.05341,0.87486 3.02109,1.94413 3.50506,3.87305 13.69203,3.75529 17.09214,-0.19758 z M 386.71932,366.74442 c -9.56963,-6.20269 -14.35621,-14.59439 -14.44501,-25.3246 -0.0424,-5.12204 -0.49999,-7.13671 -1.99666,-8.79053 -1.89364,-2.09248 -1.89628,-2.22491 -0.10664,-5.35501 5.10345,-8.92597 9.78931,-11.89957 23.2451,-14.75109 5.8277,-1.23499 14.55644,0.39962 19.95113,3.7362 1.60549,0.99298 4.36593,2.70542 6.13431,3.80542 5.92779,3.68731 11.99808,20.30494 9.27553,25.39208 -0.57936,1.08253 -2.06686,2.11217 -3.30557,2.28808 -1.47408,0.20934 -3.11592,1.89232 -4.75219,4.87128 -6.10701,11.11829 -12.27782,15.44798 -23.5,16.48856 -5.42844,0.50335 -6.42867,0.2785 -10.5,-2.36039 z m 34.38616,120.40469 c 5.80105,-1.74586 10.95321,-5.57754 14.00937,-10.41881 3.34634,-5.30094 5.60131,-13.90326 4.93257,-18.81692 -0.48762,-3.5829 -0.25929,-4.31503 1.6673,-5.34611 1.22777,-0.65708 3.78668,-1.01322 5.68648,-0.79143 4.38159,0.51152 5.52901,-1.39159 5.11934,-8.49099 -0.25698,-4.45331 -0.61475,-5.26475 -2.43583,-5.52447 -1.36767,-0.19505 -2.89536,0.66272 -4.25203,2.38744 -1.98938,2.52909 -2.45772,2.65188 -7.74462,2.03051 -3.09496,-0.36375 -6.8429,-1.52703 -8.32876,-2.58505 -3.53245,-2.51533 -17.94378,-4.41215 -22.95874,-3.02184 -6.10614,1.69283 -6.57499,2.34205 -6.64912,9.20716 -0.0373,3.45742 -0.43132,8.38957 -0.87553,10.96034 -1.26958,7.34756 -0.0789,11.11315 5.14101,16.25938 4.4085,4.34622 4.90688,4.56649 10.3323,4.56649 10.2267,0 14.91053,-6.5125 14.15299,-19.67859 -0.27291,-4.74306 -7.8064,-12.32141 -12.24848,-12.32141 -6.38634,0 -9.69594,6.03975 -6.79657,12.40317 1.2575,2.75992 5.63238,4.73119 8.71245,3.92573 2.64208,-0.69092 5.28361,0.83641 4.27344,2.4709 -1.17184,1.89608 -7.68111,2.6372 -10.85721,1.23616 -9.56381,-4.2188 -11.75518,-18.22921 -3.49959,-22.3744 4.25018,-2.13405 12.50586,-1.57533 16.11142,1.09038 1.67237,1.23643 3.40834,2.24806 3.85772,2.24806 0.44938,0 2.07356,1.9125 3.60928,4.25 2.54456,3.87301 2.76135,4.91528 2.44406,11.75 -0.38057,8.19779 -2.3135,12.23951 -8.11947,16.97765 -2.40938,1.96626 -4.44012,2.557 -9.83855,2.86204 -3.74139,0.2114 -7.82152,0.12738 -9.06696,-0.18672 -3.54188,-0.89327 -10.3767,-7.76435 -11.84017,-11.90297 -1.01184,-2.86145 -1.8708,-3.75 -3.62515,-3.75 -1.75414,0 -2.29911,0.56356 -2.29911,2.37756 0,1.30765 0.675,2.93775 1.5,3.62244 0.825,0.68469 1.5,1.81964 1.5,2.5221 0,0.70247 2.40957,3.47943 5.3546,6.17102 5.11025,4.67048 7.8942,5.82563 17.23647,7.15198 0.60009,0.0852 3.20788,-0.48217 5.79509,-1.2608 z m 88.11384,-44.31287 c 9.35142,-6.04585 14.13989,-14.6471 13.62081,-24.46631 -0.2328,-4.40371 2.19702,-6.22032 7.49304,-5.60204 l 3.38615,0.39532 0,-7.2992 c 0,-8.10136 -1.24727,-9.3429 -4.82134,-4.7992 -2.62265,3.33416 -7.95002,3.3974 -11.85193,0.14069 -6.95026,-5.80098 -15.61598,-8.55978 -23.28557,-7.41315 -8.0624,1.20536 -10.04116,2.84645 -10.04116,8.32763 0,5.97839 -2.06529,10.63168 -6.98599,15.74011 -3.21055,3.33303 -3.93063,4.723 -3.47343,6.70472 1.06127,4.60009 4.711,11.18555 8.4333,15.21677 6.46757,7.00433 19.22687,8.42027 27.52612,3.05466 z m -18.22929,-4.97445 c -3.19588,-0.61738 -9.10885,-7.96192 -10.68052,-13.26636 -1.59356,-5.37832 -0.5734,-8.31123 2.72747,-7.8413 1.80797,0.25738 2.26811,1.12821 2.68234,5.07637 0.33403,3.18373 1.42701,5.9223 3.29263,8.25 2.5702,3.20678 3.22421,3.48431 8.21105,3.48431 4.24489,0 5.84921,-0.46241 7.40751,-2.13504 4.93649,-5.29871 6.45637,-13.31972 3.57846,-18.88498 -1.89767,-3.66968 -4.93497,-5.32489 -9.45907,-5.15481 -4.17455,0.15693 -6.03058,2.26086 -6.03058,6.83602 0,2.49352 0.72841,3.81747 3.04094,5.5272 3.51201,2.59654 3.69491,6.13524 0.34184,6.61376 -2.65492,0.37889 -6.92385,-4.4805 -8.29335,-9.44043 -2.07795,-7.5257 4.1231,-14.82197 11.77413,-13.85368 6.18231,0.78242 11.29393,2.9044 13.09737,5.43709 5.12554,7.19816 2.92507,19.34454 -4.72433,26.07781 -4.08642,3.59701 -5.00641,3.96405 -9.62739,3.84088 -2.81007,-0.0749 -6.11239,-0.32998 -7.3385,-0.56684 z"
         style="fill:#000000;fill-opacity:0.20242915" />
    </g>
    <g
       transform="translate(132.08683,-52.606956)"
       id="layer1-0"
       inkscape:label="Layer 1"
       style="fill:#000000;fill-opacity:0.20242915">
      <path
         inkscape:connector-curvature="0"
         id="path3093"
         d="m 65.998564,748.69742 c -13.13329,-12.16 -4.79289,-33.16046 -7.25954,-49.22972 -0.0452,-42.55896 -0.0166,-85.11796 -0.0247,-127.67694 15.2461,1.65799 29.05241,9.06344 43.999996,12.29636 25.07031,7.06719 49.14284,17.65385 74.4147,23.70364 31.54759,8.12074 62.34688,19.8408 93.70246,29.04835 40.5596,13.72206 80.97979,27.46062 121.73549,40.49776 9.76541,0.31206 11.40014,8.68931 10.14735,16.33423 -0.28149,15.72797 0.77957,31.55741 -0.91082,47.1988 -9.59694,16.90755 -33.17129,6.91443 -49.22739,9.80723 -93.14793,-0.1015 -186.31395,0.75991 -279.450196,-0.58974 -2.3605,-0.3 -5.04601,0.0153 -7.12731,-1.38997 z m 325.058396,-6.01693 c 9.10489,-11.93817 2.74366,-30.42739 4.64733,-44.97395 3.36446,-21.5143 -23.53877,-19.37584 -36.87743,-26.46472 -19.56862,-6.89884 -39.34896,-12.274 -58.79311,-19.53864 -18.30892,-5.92774 -36.38374,-12.83364 -55.00372,-17.66552 -8.40418,14.24341 -23.58994,24.25034 -37.68446,33.20977 -19.8277,12.13375 -36.94823,28.62535 -57.50041,39.49882 -14.71171,6.86892 -25.04976,-10.27818 -29.74033,-17.86179 -18.20974,12.32248 -36.819066,24.5153 -53.802216,38.38346 -5.93637,22.07608 21.29335,14.86144 34.272086,16.04916 96.81726,0.38931 193.6894,1.27554 290.48226,-0.63659 z M 69.842894,674.54076 c 13.21364,-9.83844 27.34506,-18.24215 40.363496,-28.44875 12.65019,-10.13577 28.53597,-17.17403 38.98002,-29.4751 9.86092,-19.06069 -23.37068,-16.3254 -34.57966,-23.65575 -15.586926,-4.10126 -31.273676,-11.06909 -46.730356,-13.78176 -4.48778,15.53732 -1.22933,32.49153 -2.16211,48.61136 0.11424,16.33211 -0.15713,32.68197 0.59184,49 l 1.28306,-0.66094 2.25371,-1.58906 0,0 z m 322.609026,-5.3457 c -14.52243,-1.34445 -26.40529,-10.33538 -16.40762,-25.21953 -0.0707,-15.08662 15.29489,-26.2362 26.66998,-14.96917 0,11.52574 0,23.05148 0,34.57722 -2.97745,1.99948 -6.37497,7.57521 -10.26236,5.61148 z m 3.26236,-22.4043 c -0.68667,-5.30431 1.35109,-13.33306 -0.97296,-17 -12.43665,-0.86281 -20.47422,25.47947 -12.41525,32.11838 11.29014,6.0228 15.58499,0.50038 13.38821,-9.79389 0,-1.77483 0,-3.54966 0,-5.32449 z m -52,6.91834 c -11.84817,-5.06409 -38.00245,-6.9332 -28.86007,-25.8065 1.83848,-16.56736 13.15913,-29.55219 30.08009,-18.90438 16.84962,1.9142 34.86376,11.31658 21.93193,30.34907 -2.38296,12.02163 -9.85522,22.77928 -23.15195,14.36181 z m 17.72008,-15.41834 c 10.01002,-14.55585 -1.38803,-22.72121 -15.66188,-24.40432 -13.91465,-9.14162 -23.71748,0.18992 -24.88427,14.92587 -7.38703,18.10214 23.69148,17.34101 34.51552,22.53315 3.75403,-3.10339 4.22396,-8.76928 6.03063,-13.0547 z m -70.08738,-1.60919 c -11.2393,-7.84358 -41.20911,-4.29657 -37.62568,-23.07844 5.40834,-11.40051 6.56457,-36.47075 25.088,-26.17766 13.09561,5.77302 44.22102,6.56558 31.90709,28.07008 -2.97263,9.17786 -5.66016,26.20091 -19.36941,21.18602 z m 12.27131,-17.8266 c 12.31862,-17.99878 -7.68906,-21.71991 -21.26601,-25.44696 -17.28678,-13.21024 -23.06712,17.59737 -21.20929,27.74663 12.56819,0.63893 35.80824,20.87719 40.79384,2.70014 l 0.83511,-2.4213 0.84635,-2.57851 0,0 z m -75.40401,-2.30415 c -11.70598,-6.81354 -41.46846,-4.28886 -33.13895,-24.41665 1.94356,-16.72531 12.17222,-35.01796 30.89192,-21.84882 13.58947,4.44329 37.32488,7.17043 24.13765,25.89526 -4.58788,10.98588 -5.32114,27.09922 -21.89062,20.37021 z m 18.71242,-26.39399 c 6.30668,-8.86178 -9.27422,-10.93508 -3.41243,0.0412 -1.07295,8.69097 2.25045,5.80057 3.41243,-0.0412 l 0,0 z m 134.94215,22.99976 c -14.99547,-4.44816 -29.41432,-8.63287 -44.1444,-13.7475 -28.77188,-10.46016 -58.29607,-18.73321 -87.01017,-29.25891 -32.62974,-8.59012 -64.25028,-20.49828 -96.7375,-29.47836 -7.19784,-5.43651 -32.27935,-11.04591 -21.34863,4.05279 -5.01991,13.41243 -6.43544,44.22488 -27.76535,33.89475 -15.776516,-2.61706 -37.046536,-10.3208 -23.902886,-29.78009 2.26616,-12.60377 23.213936,-29.74148 -0.37509,-32.76531 -20.23936,0.49605 -24.78518,-16.19098 -21.8313,-33.18501 0.29274,-21.9626 -0.86241,-44.01675 0.8527,-65.91712 9.23372,-17.30161 33.178,-7.14111 49.224236,-10.07152 93.07219,0.0899 186.16215,-0.77581 279.22293,0.55895 21.40689,1.24042 12.46962,28.25323 14.59435,42.20904 0.12155,54.59115 0.0449,109.18256 0.0666,163.77383 -5.49288,8.07252 -13.62496,1.2495 -20.84544,-0.28554 z m 13.84543,-38.32147 c 0,-12.31855 0,-24.63709 0,-36.95564 -21.14308,9.13466 -42.75847,16.81547 -63.5,26.97492 -14.6632,8.5537 -39.04529,15.25442 -46.5588,-5.75955 -3.69823,-13.07433 -30.39386,7.89121 -22.72395,11.21901 27.88197,6.77462 54.74667,17.38701 82.0762,26.07178 16.48755,5.02215 32.43054,12.58457 49.50173,15.16444 2.31369,-11.85142 0.66551,-24.60499 1.20482,-36.71496 z m -278.99905,0.70564 c 2.94871,-12.08007 20.19648,-38.84765 -4.63113,-33.79739 -9.94194,0.34949 -20.837586,-16.11496 -23.215336,2.20182 -6.59127,11.71415 -8.81823,27.30332 9.23042,26.75864 6.189866,1.30258 12.271836,5.04714 18.616046,4.83693 z m 53.99905,-38.84553 c 17.94262,-13.34961 37.2533,-25.31106 55.04817,-38.53449 -8.13685,-14.38141 -32.68664,-8.90202 -43.19524,2.55182 -12.78171,10.68189 -31.74583,17.04616 -40.75713,30.69363 8.56449,1.72066 20.80332,10.94238 28.9042,5.28904 z M 334.42032,524.5534 c 20.6098,-8.64363 40.36242,-19.3521 61.27836,-27.26264 -0.32391,-26.27582 0.88809,-52.64007 -1.09447,-78.84267 -12.4042,-8.72609 -31.42789,-2.11545 -46.46729,-4.37707 -92.58172,-0.22824 -185.21042,-1.17176 -277.765106,0.83001 -8.83364,13.18134 -2.75285,32.55159 -4.65753,48.31434 2.77811,14.06042 -6.09082,36.43452 6.09531,45.1538 12.25955,5.51484 23.46334,8.34094 32.289376,-3.95667 23.25379,-15.94212 47.72908,-30.28353 70.49878,-47.09361 12.63184,-13.52399 30.05594,-12.32204 45.32657,-5.08484 20.4517,5.41567 41.06781,10.73734 61.2869,17.27392 12.34122,13.5413 19.75912,31.06031 28.85497,46.91747 4.41672,9.85352 14.84268,14.51333 24.35413,8.12796 z m -8.57118,-28.48346 c -16.41313,-3.30692 -26.28827,-23.25651 -17.92668,-38.01261 -6.76926,-15.93115 17.5332,-24.25135 30.57053,-21.56252 21.24976,0.96132 36.67559,28.10541 25.29587,46.50875 -12.52752,3.46247 -23.22245,17.03391 -37.93972,13.06638 z M 163.21428,596.64385 c -11.42374,-6.43834 -39.49917,-4.133 -29.03408,-24.14233 2.22396,-15.56652 11.52798,-32.74161 29.15283,-21.95926 12.03117,5.24713 39.39632,4.09957 29.15313,24.14825 -2.16179,15.47881 -11.28653,34.52269 -29.27188,21.95334 l 0,0 z m -14.55392,-14.60309 c -2.70877,-7.36529 1.55213,-28.5501 -2.2003,-28.7086 -3.10609,9.7137 -16.89777,35.95485 2.03558,31.7559 l 0.16472,-3.0473 0,0 z M 59.457344,563.20048 c 0.33357,-14.68934 -3.82131,-32.53004 1.99987,-45.53199 13.11934,1.04575 22.09867,9.02429 13.38272,21.62227 -5.28893,6.75407 -3.87677,26.34599 -15.38259,23.90972 z m 11.7258,-29.19171 c 3.29938,-12.95485 -9.85291,-9.9814 -5.449,1.2677 0.55432,3.06224 -1.3705,17.85368 1.60558,9.45825 1.52763,-3.47955 2.72643,-7.09733 3.84342,-10.72595 z"
         style="fill:#000000;fill-opacity:0.20242915" />
    </g>
    <g
       transform="translate(1032.7469,92.341016)"
       id="layer1-8"
       inkscape:label="Layer 1"
       style="fill:#000000;fill-opacity:0.20242915;stroke:none">
      <path
         inkscape:connector-curvature="0"
         id="path3134"
         d="m -466.86606,603.75387 c -1.76864,-1.13281 -4.13114,-3.54084 -5.25,-5.35119 -2.02369,-3.2744 -2.03428,-4.13099 -2.03428,-164.55547 0,-160.84006 0.005,-161.27265 2.05041,-164.58156 1.12772,-1.82469 3.54334,-4.24031 5.36803,-5.36803 3.30894,-2.04504 3.74038,-2.05041 164.71746,-2.05041 l 161.39983,0 3.72129,2.52868 c 7.31042,4.96756 6.74298,-9.30086 6.74298,169.55363 0,160.75708 -0.005,161.19036 -2.05041,164.49925 -1.12772,1.82469 -3.54334,4.24031 -5.36803,5.36803 -3.30923,2.04522 -3.7259,2.05037 -164.69959,2.03356 -161.21809,-0.0168 -161.38524,-0.0189 -164.59769,-2.07649 z m 325.0584,-6.01693 c 1.34022,-0.61065 2.9364,-2.20683 3.54705,-3.54705 1.57887,-3.46526 1.57887,-317.22011 0,-320.68536 -0.61065,-1.34023 -2.20683,-2.9364 -3.54705,-3.54705 -3.46526,-1.57887 -317.2201,-1.57887 -320.68535,0 -1.34024,0.61065 -2.93641,2.20682 -3.54706,3.54705 -0.7905,1.73497 -1.11027,31.80032 -1.11027,104.38973 l 0,101.95295 10.34501,0 c 8.66313,0 10.60788,-0.29046 11.96186,-1.7866 3.05263,-3.37311 5.03814,-9.72456 5.69366,-18.2134 1.36637,-17.69421 5.0207,-38.60921 6.98892,-40 5.28056,-3.73137 17.01055,-14.6797 17.01055,-15.87701 0,-0.44443 1.54506,-1.64012 3.43347,-2.65709 1.8884,-1.01698 3.625,-2.58148 3.8591,-3.47667 0.23409,-0.89519 2.06403,-2.38399 4.06653,-3.30843 2.0025,-0.92444 5.14958,-2.3756 6.99353,-3.22481 1.84395,-0.84921 5.05267,-3.10119 7.1305,-5.0044 3.9607,-3.62786 15.21835,-11.45159 16.47781,-11.45159 0.78722,0 4.00785,-2.55811 8.03906,-6.38534 2.55408,-2.42483 19.693,-14.61466 20.54825,-14.61466 0.25974,0 2.60515,-1.46932 5.21201,-3.26516 2.60686,-1.79584 6.452,-4.15834 8.54476,-5.25 2.09276,-1.09166 4.7587,-2.99734 5.92431,-4.23484 1.16562,-1.2375 2.55375,-2.25 3.08474,-2.25 0.531,0 1.49188,-0.71994 2.1353,-1.59987 0.78226,-1.06981 3.34885,-1.77478 7.7467,-2.1278 5.37152,-0.43117 7.28492,-0.15516 10.44039,1.50603 2.12495,1.11867 8.36354,3.04575 13.86354,4.2824 5.5,1.23665 11.125,2.82982 12.5,3.54038 1.375,0.71056 5.65,1.79334 9.5,2.40619 6.35173,1.01107 11.50151,2.35022 20,5.2008 1.65,0.55345 4.8,1.37388 7,1.82319 2.2,0.44931 6.025,1.49864 8.5,2.33186 2.475,0.83322 9,2.73018 14.5,4.21546 16.67479,4.50305 20.96151,8.43579 22.28589,20.44559 0.67444,6.11603 0.86688,6.49335 3.46411,6.79219 1.5125,0.17403 2.75,0.67452 2.75,1.11219 0,0.43767 2.29437,3.27255 5.09861,6.29974 5.24161,5.65836 9.88826,15.0282 9.89676,19.95655 0.01,5.69484 -1.47072,7.33852 -9.5217,10.57086 -4.23724,1.70118 -8.32021,2.85662 -9.07327,2.56765 -1.54544,-0.59305 -7.4004,-10.37286 -7.4004,-12.36125 0,-1.40644 -1.37269,-3.06337 -7.49956,-9.05251 -2.95508,-2.88866 -4.83029,-3.90965 -7.18066,-3.90965 -4.81852,0 -9.73839,3.77793 -12.69708,9.75 -1.43053,2.8875 -3.05586,5.25 -3.61183,5.25 -0.55598,0 -1.01087,1.35 -1.01087,3 0,1.65 0.45,3 1,3 0.55,0 1,1.8 1,4 0,2.2 -0.45,4 -1,4 -0.55,0 -1,0.62017 -1,1.37816 0,1.44976 -21.90425,34.88024 -23.23086,35.45517 -0.42303,0.18334 -0.76914,0.77798 -0.76914,1.32143 0,1.09146 -1.0494,2.3298 -7.27761,8.58791 -6.31983,6.35017 -11.84535,6.82809 -19.43059,1.6806 -2.06803,-1.4034 -5.16734,-3.21944 -6.88737,-4.03564 -3.22439,-1.53008 -5.40443,-4.96148 -5.40443,-8.50661 0,-2.54753 4.247,-9.86342 8.15366,-14.04551 1.63696,-1.75238 3.6699,-4.52742 4.51763,-6.16675 0.84774,-1.63934 2.3935,-3.8953 3.43502,-5.01325 1.04153,-1.11795 1.89369,-2.78367 1.89369,-3.70162 0,-2.08279 -7.10343,-2.95389 -24.08767,-2.95389 -6.78418,0 -12.05683,-0.42479 -12.41233,-1 -0.33992,-0.55 -1.60398,-1.01431 -2.80902,-1.0318 -1.20504,-0.0175 -2.95791,-0.61456 -3.89526,-1.32681 -1.65719,-1.25923 -5.61092,-8.39492 -7.70891,-13.91305 -0.57052,-1.50059 -1.70288,-2.72834 -2.51635,-2.72834 -0.81347,0 -4.37714,2.1375 -7.91928,4.75 -3.54213,2.6125 -9.4127,6.87658 -13.04571,9.47573 -4.1101,2.94048 -6.60547,5.43377 -6.60547,6.59996 0,1.84996 5.53807,10.36101 7.16258,11.00764 0.46058,0.18334 0.83742,0.90181 0.83742,1.5966 0,0.6948 1.48645,2.7948 3.30323,4.66667 3.0817,3.17515 11.69677,15.38704 11.69677,16.58021 0,0.65624 5.51067,7.66136 9.24095,11.74702 3.82377,4.18805 5.82001,11.75377 4.77644,18.10266 -0.86088,5.23748 -4.82794,14.47351 -6.21666,14.47351 -0.4404,0 -0.80073,0.50295 -0.80073,1.11767 0,0.61472 -2.475,4.40617 -5.5,8.42545 -3.025,4.01929 -5.5,7.59776 -5.5,7.95216 0,0.89064 -6.01266,9.77714 -7.44587,11.00472 -1.59007,1.36195 -9.59119,11.94467 -12.05413,15.94348 -1.1,1.78595 -3.2375,4.86175 -4.75,6.83513 -1.5125,1.97337 -2.75,3.86152 -2.75,4.19588 0,0.33436 -2.08556,3.85189 -4.63458,7.81672 -8.7261,13.57287 -18.68036,18.34862 -28.71579,13.77696 -6.59481,-3.00429 -10.30419,-7.23018 -11.5838,-13.19682 -2.08769,-9.73456 -0.57294,-16.64746 4.77765,-21.80394 1.46523,-1.41208 4.23736,-4.72196 6.16029,-7.3553 1.92292,-2.63335 5.18373,-6.97277 7.24623,-9.64317 2.0625,-2.67039 3.75,-5.34018 3.75,-5.93286 0,-1.59538 5.86194,-9.70137 11,-15.211 7.98452,-8.56193 9.32582,-10.80893 9.78945,-16.39968 0.3931,-4.74031 0.0941,-5.71163 -3.20219,-10.40125 -1.99968,-2.84497 -4.41237,-5.99344 -5.36152,-6.99659 -4.75159,-5.02191 -10.9452,-12.80366 -12.75066,-16.02012 -2.75491,-4.90794 -7.45049,-5.42998 -12.63378,-1.4046 -3.76484,2.9238 -5.19895,6.38851 -8.40137,20.29716 -3.58091,15.55248 -7.5835,26.42926 -10.76382,29.25 l -3.10056,2.75 -22.28778,0 -22.28777,0 0,35.95295 c 0,37.55148 0.24286,39.88193 4.36408,41.87746 3.12042,1.51093 317.66507,1.56906 320.9786,0.0593 z m -32.55849,-15.53008 c -5.02986,-2.7051 -4.70194,-2.7156 -17.28419,0.5534 -2.2,0.57158 -8.06454,1.04997 -13.03231,1.06309 l -9.0323,0.0239 -4.84778,-4.75 c -2.66628,-2.6125 -6.02253,-6.55 -7.45833,-8.75 -1.43581,-2.2 -3.06477,-4.32041 -3.61992,-4.71202 -0.60732,-0.42842 -1.1313,-9.09178 -1.31549,-21.75 -0.29447,-20.23641 -0.23245,-21.03802 1.62755,-21.03802 2.8734,0 3.90308,1.80666 5.56073,9.75677 2.81503,13.50099 9.95468,22.1648 19.61785,23.80584 6.47885,1.10026 16.98622,4.59079 17.74624,5.89526 0.41457,0.71155 3.22876,2.54069 6.25376,4.06476 7.48672,3.77198 12.24948,9.12402 14.4407,16.22737 0.58396,1.89303 0.32641,2.24174 -1.62331,2.19793 -1.27457,-0.0286 -4.4395,-1.19336 -7.0332,-2.58828 z m 12.88248,-15.02632 c -0.36667,-0.36666 -0.66667,-3.33138 -0.66667,-6.58825 0,-9.19471 -4.11526,-17.05202 -13.73531,-26.22498 -9.67012,-9.2207 -8.87681,-8.36335 -11.58479,-12.5201 -5.45456,-8.37277 -6.26667,-18.84256 -2.33284,-30.07518 1.45912,-4.16635 2.65294,-8.60895 2.65294,-9.87244 0,-1.81991 0.28169,-2.06348 1.35564,-1.17219 0.7488,0.62145 1.63468,4.11325 1.979,7.80045 0.34284,3.67145 0.9703,6.93276 1.39436,7.24736 0.42405,0.3146 1.62219,2.147 2.66254,4.072 2.49849,4.62308 6.61661,9 8.46784,9 0.81685,0 5.00505,3.64991 9.3071,8.11091 11.1451,11.55687 12.88917,18.50339 8.88519,35.38909 -3.17491,13.38935 -3.98268,15.5 -5.93201,15.5 -0.98248,0 -2.08633,-0.3 -2.45299,-0.66667 z m -14.12723,-7.42656 c -1.07831,-1.0859 -3.10331,-2.21798 -4.5,-2.51574 -1.39669,-0.29776 -4.17571,-1.40755 -6.17559,-2.46621 -1.99989,-1.05865 -4.92489,-1.94264 -6.5,-1.96442 -1.57512,-0.0218 -5.96713,-1.25928 -9.76004,-2.75 -6.45636,-2.53754 -7.07881,-3.06118 -9.75962,-8.2104 -4.66971,-8.96943 -5.40493,-14.69248 -3.84853,-29.95746 1.37029,-13.43952 2.3033,-15.69916 5.41569,-13.11611 0.76224,0.6326 1.63102,2.82044 1.93063,4.86187 1.03871,7.07731 1.8894,10.2117 2.77152,10.2117 0.48757,0 0.88818,0.7875 0.89024,1.75 0.006,2.71746 3.44768,7.72245 8.55862,12.44546 2.56196,2.3675 6.28382,5.80229 8.27082,7.63288 1.98699,1.83059 5.87489,4.44537 8.63977,5.81062 7.84865,3.87554 9.43432,5.59911 10.54653,11.46378 0.54919,2.89584 0.73915,6.08239 0.42213,7.08122 -0.75742,2.38642 -4.40254,2.24003 -6.90217,-0.27719 z m -89.03944,-222.37761 c -0.55,-0.19482 -2.32503,-0.64912 -3.94452,-1.00956 -4.20566,-0.93603 -12.16304,-9.88334 -14.62276,-16.4419 -1.56063,-4.16124 -1.88167,-6.63809 -1.38042,-10.65 0.59104,-4.73049 0.45316,-5.29119 -1.44957,-5.8951 -1.94726,-0.61803 -3.09602,-4.5326 -1.33013,-4.5326 0.42492,0 1.64925,-1.62786 2.72073,-3.61747 1.07147,-1.98961 3.5363,-4.80211 5.4774,-6.25 1.9411,-1.44789 4.09715,-3.16826 4.79122,-3.82305 1.87358,-1.76753 9.59482,-2.65348 17.4132,-1.99802 7.03368,0.58968 17.82485,4.60543 17.82485,6.63322 0,0.58042 0.59037,1.05532 1.31194,1.05532 1.52187,0 5.08531,4.52553 6.11297,7.76342 0.38836,1.22361 1.44377,2.9624 2.34536,3.864 1.23011,1.2301 1.65055,3.59095 1.68449,9.45876 0.0386,6.67924 -0.24641,8.04049 -1.95476,9.33487 -1.1,0.83344 -2.675,1.5305 -3.5,1.54902 -0.825,0.0185 -4.2,2.71995 -7.5,6.00318 -3.3,3.28323 -7.35,6.39692 -9,6.91931 -3.39256,1.0741 -13.48064,2.17477 -15,1.6366 z m -3.5,141.35286 c 0,-0.6149 1.35877,-2.7524 3.01948,-4.75 1.66071,-1.99761 4.13969,-4.98202 5.50884,-6.63202 4.35127,-5.24384 8.4151,-10.96958 8.44386,-11.89701 0.0153,-0.49335 1.53286,-2.74335 3.37235,-5 1.8395,-2.25664 3.92398,-5.22799 4.6322,-6.60299 0.70821,-1.375 2.7892,-4.35869 4.62443,-6.63043 3.43437,-4.25124 5.92164,-12.14703 4.8701,-15.46011 -0.8193,-2.58141 -5.29717,-5.90946 -7.95113,-5.90946 -2.89735,0 -5.3355,2.79716 -6.15879,7.06562 -1.35168,7.00807 -7.42564,12.91653 -13.3107,12.94803 -5.09662,0.0273 -6.9287,1.24935 -10.46699,6.98183 -1.97101,3.19329 -3.58365,6.08257 -3.58365,6.42063 0,0.69996 -7.1693,11.82094 -8.11239,12.58389 -1.26683,1.02486 -1.94685,4.91581 -1.30562,7.47064 1.31083,5.22278 16.41801,13.88274 16.41801,9.41138 z m 84.73574,-57.63202 c 4.10935,-1.68939 4.25793,-1.90584 4.29035,-6.25 0.0489,-6.55477 -7.38513,-21.48779 -11.42531,-22.95042 -4.21124,-1.52456 -5.1878,-1.3396 -8.29926,1.57188 -1.54084,1.4418 -3.81402,3.29355 -5.05152,4.11501 -3.21474,2.13394 -2.78423,3.93212 1.26104,5.26717 4.22159,1.39326 7.4134,5.36636 11.0432,13.74636 1.48895,3.4375 2.98114,6.25 3.31597,6.25 0.33482,0 2.52432,-0.7875 4.86553,-1.75 z m -47.92537,-10.50832 c 0.26556,-3.20162 0.0157,-3.74168 -1.73095,-3.74168 -2.2132,0 -3.76111,3.78115 -2.69029,6.57167 1.1626,3.02969 4.09065,1.15548 4.42124,-2.82999 z m -12.01037,1.05832 c 0.66,-0.66 1.2,-2.01 1.2,-3 0,-0.99 0.3375,-1.80285 0.75,-1.80632 0.4125,-0.003 1.51657,-1.35348 2.45349,-3 1.28579,-2.25962 2.42427,-2.99368 4.64301,-2.99368 2.71295,0 4.1535,-1.43264 4.1535,-4.13068 0,-1.45013 -8.05915,-4.82226 -11.58484,-4.84736 -1.69667,-0.0121 -5.74667,-0.85593 -9,-1.87523 -3.25334,-1.0193 -8.84016,-2.64557 -12.41516,-3.61394 -3.575,-0.96838 -8.49266,-2.3844 -10.92814,-3.14673 -2.43548,-0.76234 -6.55136,-1.38606 -9.14641,-1.38606 -4.1266,0 -5.09784,0.43231 -7.74516,3.44745 l -3.0269,3.44744 1.71067,4.50658 c 0.94087,2.47863 2.03216,4.82809 2.4251,5.22103 0.39295,0.39294 6.90113,0.75739 14.46264,0.80989 11.44887,0.0795 14.40603,0.41942 17.68153,2.03247 4.36201,2.14812 9.18413,6.75451 10.10364,9.65163 0.68214,2.14924 2.50503,2.44151 4.26303,0.68351 z m 21.09382,-8.68502 c 2.53287,-1.94747 2.15768,-4.11498 -0.71229,-4.11498 -1.93992,0 -4.54885,3.59665 -3.65639,5.04068 0.83337,1.34842 1.63069,1.17947 4.36868,-0.9257 z"
         style="fill:#000000;fill-opacity:0.20242915;stroke:none" />
    </g>
    <g
       transform="translate(-681.56892,-9.3479327)"
       id="layer1-68"
       inkscape:label="Layer 1"
       style="fill:#000000;fill-opacity:0.20242915">
      <path
         inkscape:connector-curvature="0"
         id="path3002"
         d="m 158.13123,708.44282 c -1.76864,-1.13281 -4.13114,-3.54084 -5.25,-5.35119 -1.95343,-3.16072 -2.03428,-4.82075 -2.03428,-41.76852 0,-43.63586 -0.58974,-40.66514 8.51291,-42.8828 2.7429,-0.66825 9.03709,-2.44162 13.98709,-3.94084 4.95,-1.49921 11.22352,-3.04474 13.94115,-3.43451 2.71764,-0.38977 7.21764,-1.60881 10,-2.70898 2.78237,-1.10016 7.75885,-2.4267 11.05885,-2.94786 3.3,-0.52116 10.05,-2.2212 15,-3.77786 4.95,-1.55666 16.65,-4.94927 26,-7.53915 9.35,-2.58987 19.025,-5.30587 21.5,-6.03555 2.475,-0.72968 9,-2.54834 14.5,-4.04148 5.5,-1.49313 13.3137,-3.78649 17.36377,-5.09635 4.05007,-1.30986 8.34757,-2.38157 9.55,-2.38157 1.20243,0 2.66213,-0.4759 3.24378,-1.05755 0.58165,-0.58165 3.60985,-1.32097 6.72932,-1.64293 3.11947,-0.32196 5.91013,-0.97106 6.20146,-1.44245 0.29134,-0.47139 1.41727,-0.85707 2.50207,-0.85707 2.55446,0 3.25583,-1.95913 1.9402,-5.41951 -0.99855,-2.6264 -1.31261,-2.74175 -6.29081,-2.31057 -9.42005,0.81591 -18.1388,2.78848 -23.73979,5.37101 -5.23864,2.41545 -18.46665,6.12084 -49.5,13.86578 -7.7,1.92167 -18.11493,4.60734 -23.14428,5.96815 -5.02935,1.36081 -12.45435,2.9776 -16.5,3.59287 -4.04565,0.61527 -10.05572,1.78727 -13.35572,2.60445 -3.3,0.81717 -7.125,1.73562 -8.5,2.04099 -1.375,0.30537 -2.95,0.86378 -3.5,1.2409 -2.18815,1.50036 -19.53896,5.81951 -26.72066,6.65159 -4.46759,0.51762 -6.2747,0.29979 -8.25,-0.99448 l -2.52934,-1.65729 0,-115.60891 c 0,-114.81092 0.0142,-115.63181 2.05041,-118.92654 1.12772,-1.82469 3.54334,-4.24031 5.36803,-5.36803 3.3088,-2.04495 3.74559,-2.05041 164.08156,-2.05041 160.33597,0 160.77276,0.005 164.08156,2.05041 1.82469,1.12772 4.24031,3.54334 5.36803,5.36803 2.01791,3.26504 2.05041,4.46817 2.05041,75.90429 l 0,72.58665 -10.22374,7.29531 -10.22373,7.29531 10.22373,0.28498 10.22374,0.28499 0,84.09698 c 0,83.04076 -0.0258,84.13865 -2.05041,87.41461 -1.12772,1.82469 -3.54334,4.24031 -5.36803,5.36803 -3.30912,2.04515 -3.72999,2.05037 -164.19959,2.03356 -160.71326,-0.0168 -160.88534,-0.019 -164.09769,-2.07649 z m 323.0584,-6.01693 c 1.34022,-0.61065 2.9364,-2.20683 3.54705,-3.54705 0.78412,-1.72096 1.11027,-25.92368 1.11027,-82.38973 l 0,-79.95295 -9.5,0 c -8.73705,0 -9.5,-0.15588 -9.5,-1.94098 0,-1.06754 -0.45,-2.2191 -1,-2.55902 -0.55,-0.33992 -1,-1.45036 -1,-2.46764 0,-1.31266 3.19331,-3.64446 11,-8.03236 l 11,-6.18276 0,-70.36157 c 0,-49.43673 -0.33018,-71.08624 -1.11027,-72.79835 -0.61065,-1.34023 -2.20683,-2.9364 -3.54705,-3.54705 -3.4651,-1.5788 -315.22026,-1.5788 -318.68536,0 -1.34023,0.61065 -2.9364,2.20682 -3.54705,3.54705 -0.77406,1.69889 -1.11027,20.50416 -1.11027,62.10107 l 0,59.66429 28.75,-28.5428 c 30.52815,-30.30812 33.87946,-32.89996 42.4891,-32.86021 2.3435,0.0108 7.8609,0.68334 12.2609,1.49448 22.45749,4.14006 31.49656,5.71487 36.5,6.35915 10.44015,1.34436 15.66742,6.6129 18.48078,18.6267 0.90159,3.85 2.32324,9.7 3.15923,13 0.83599,3.3 1.9543,7.8 2.48514,10 0.53084,2.2 1.41219,5.6875 1.95855,7.75 l 0.99339,3.75 6.79028,0 6.79029,0 22.89125,25.5 22.89125,25.5 4.61501,0 c 3.49329,0 9.67075,-2.06599 25.41562,-8.5 22.97009,-9.38654 26.3231,-10.01054 34.28972,-6.38132 5.49268,2.5022 10.98014,2.2345 22.10401,-1.07833 3.94454,-1.17474 7.64145,-1.84568 8.21537,-1.49098 1.54202,0.95303 3.04962,5.47271 2.44591,7.33271 -0.28882,0.88986 -3.47214,3.41792 -7.07403,5.61792 -3.60189,2.2 -8.39343,5.125 -10.64787,6.5 -2.81072,1.71428 -5.07404,4.31666 -7.20144,8.28025 l -3.10246,5.78026 -36.75,17.6247 -36.75,17.6247 0,6.13188 c 0,5.36774 -1.7495,10.98739 -14.03889,45.09504 -7.72139,21.42975 -14.76707,40.90066 -15.65707,43.26871 -2.14357,5.70347 -5.80111,7.64571 -12.71279,6.7508 -11.64591,-1.50789 -18.38515,-7.95274 -19.2902,-18.44754 -0.36362,-4.21646 0.30388,-8.71182 2.68891,-18.1088 1.74494,-6.875 3.7463,-13.4 4.44747,-14.5 1.6692,-2.61863 4.56257,-14.24781 4.56257,-18.33807 l 0,-3.21029 -16.75,0.27418 -16.75,0.27418 -0.5,29.04694 c -0.5598,32.52124 -0.49332,32.2143 -8.00542,36.95648 l -3.95484,2.49658 -53.51987,0 c -58.10055,0 -54.98866,-0.31775 -52.40579,5.35104 0.61275,1.34483 2.07525,2.91054 3.25,3.47937 3.12029,1.51087 315.66522,1.56899 318.9786,0.0593 z M 355.84695,507.86843 c -6.92338,-2.97622 -13.71284,-12.92008 -14.66595,-21.47982 -0.37549,-3.37221 -1.36702,-6.2009 -2.68003,-7.64577 l -2.08404,-2.29331 1.96501,-5.6956 c 1.73689,-5.03438 2.76633,-6.29184 8.8675,-10.83167 8.06832,-6.00358 14.18224,-7.79185 23.16299,-6.77501 7.65115,0.8663 14.25817,4.21445 18.9419,9.59893 5.55704,6.38846 7.44515,11.20055 7.47066,19.03998 0.0193,5.9444 -0.20212,6.75 -1.8556,6.75 -2.17451,0 -3.93771,1.89036 -6.09183,6.53114 -2.19982,4.73926 -8.6109,11.39555 -12.56836,13.04908 -4.38524,1.83227 -15.94914,1.69215 -20.46225,-0.24795 z M 251.61368,429.31282 c -4.27847,-0.89208 -5.22053,-1.64417 -9.80413,-7.82711 -5.11039,-6.89353 -6.9626,-11.18273 -6.9626,-16.1234 0,-2.01718 -0.5559,-2.76671 -2.22988,-3.0066 -3.10971,-0.44563 -4.25194,-4.31648 -2.83095,-9.59363 0.8111,-3.01223 2.79112,-5.88656 6.71557,-9.74881 3.06093,-3.01241 6.15867,-5.47711 6.88386,-5.47711 0.7252,0 1.91319,-0.5928 2.63997,-1.31733 5.165,-5.14895 23.44004,-4.74594 31.32143,0.69073 5.79872,4.00002 10.68448,9.14203 12.46075,13.11429 3.70912,8.29472 3.44293,17.51231 -0.50572,17.51231 -1.72311,0 -4.7256,3.23583 -5.04936,5.44178 -0.46468,3.16601 -4.7407,8.69265 -8.98493,11.61275 -8.21373,5.6512 -13.82531,6.77145 -23.65401,4.72213 z m -21.59547,222.56835 c 1.24334,-1.12521 1.82874,-3.0622 1.82874,-6.05102 0,-4.02183 -0.27665,-4.50856 -3.25,-5.71784 -1.7875,-0.72699 -5.62926,-1.87793 -8.53725,-2.55765 -2.90798,-0.67972 -5.83744,-1.78605 -6.5099,-2.45851 -0.67246,-0.67246 -2.39991,-1.51812 -3.83878,-1.87926 -1.43886,-0.36113 -4.35941,-2.22659 -6.49009,-4.14546 -2.13069,-1.91888 -4.15607,-3.49931 -4.50084,-3.51207 -0.34477,-0.0128 -1.59478,-2.2732 -2.77779,-5.0232 -2.52876,-5.87825 -3.57452,-6.0892 -14.59535,-2.94416 -3.85,1.09868 -10.04394,2.83582 -13.7643,3.8603 -3.72037,1.02449 -7.43287,2.41757 -8.25,3.09573 -1.18366,0.98235 -1.4857,4.0543 -1.4857,15.11057 l 0,13.87756 35.17126,0 c 31.3239,0 35.3713,-0.18104 37,-1.65499 z M 172.0499,598.62502 c 1.26338,-0.50113 6.12205,-1.91756 10.79705,-3.14762 4.675,-1.23007 9.02996,-2.88656 9.67768,-3.68109 2.17153,-2.66371 2.65859,-9.09799 0.89272,-11.79305 -3.092,-4.71898 -6.06393,-3.43415 -16.80251,7.26414 -5.37234,5.35218 -9.76789,10.30218 -9.76789,11 0,1.49299 1.99491,1.63011 5.20295,0.35762 z m 147.59631,-38.46951 c 4.23775,-0.89631 5.04902,-1.37107 4.05,-2.37009 -1.74094,-1.74094 -7.95911,-1.56105 -10.62675,0.30744 -2.71376,1.9008 -3.09002,5.02258 -0.47251,3.92037 0.9625,-0.4053 4.13467,-1.24127 7.04926,-1.85772 z m -86.86633,-18.14776 c 4.29064,-3.06478 12.76373,-8.28874 17.8099,-10.98044 7.46728,-3.98314 17.30852,-11.27659 17.84837,-13.22762 1.32102,-4.77423 -3.59195,-24.94285 -6.33207,-25.99434 -0.95628,-0.36695 -9.29555,7.27784 -24.35664,22.32825 -12.59637,12.58744 -22.90249,23.28663 -22.90249,23.77599 0,0.48935 1.99674,2.88647 4.43721,5.32694 4.9881,4.9881 4.76359,5.00854 13.49572,-1.22878 z"
         style="fill:#000000;fill-opacity:0.20242915" />
    </g>
    <g
       transform="translate(743.82422,-148.51981)"
       id="layer1-7"
       inkscape:label="Layer 1"
       style="fill:#000000;fill-opacity:0.20242915">
      <path
         id="path3022"
         sodipodi:nodetypes="sssssccsssssscccccccssccscssscccccccccsscccsscccccccsssssssssssssscccssscssscccsscssccccccsssssssssssssscscsssssssssssssssssssssssssscccssssssssssssssssssssssscsscccsscsssscsscccsscsssscsscccsscsss"
         inkscape:connector-curvature="0"
         d="m 195.28427,847.84027 c -1.76864,-1.13281 -4.13114,-3.54084 -5.25,-5.35119 -2.02409,-3.27505 -2.03428,-4.11413 -2.03428,-167.55547 0,-163.86465 0.005,-164.272 2.05041,-167.58156 1.12772,-1.82469 3.54334,-4.24031 5.36803,-5.36803 3.23356,-1.99846 4.63647,-2.05041 55.36626,-2.05041 62.68047,-1.05336 131.1719,0.0124 161.34727,0 107.2727,0 108.15833,0.0163 111.44959,2.05041 1.82469,1.12772 4.24031,3.54334 5.36803,5.36803 2.04543,3.30956 2.05041,3.71691 2.05041,167.58156 0,163.86465 -0.005,164.272 -2.05041,167.58156 -1.12772,1.82469 -3.54334,4.24031 -5.36803,5.36803 -3.29474,2.03626 -4.11543,2.05041 -118.94959,2.05041 l -115.63197,0 0,-36.5 0,-36.5 -14,0 -14,0 0,36.5 0,36.5 -31.25,-0.0168 c -29.82872,-0.0161 -31.39625,-0.11057 -34.46572,-2.07654 z m 29.13642,-27.15666 0.66531,-22.25 -6.92842,-19.46181 c -3.81064,-10.70399 -7.38251,-19.61317 -7.93751,-19.79816 -1.17655,-0.39219 -12.41205,10.38163 -14.08353,13.50481 -1.69187,3.1613 -1.58669,64.95028 0.11345,66.64136 2.97584,2.96 5.69155,3.55419 16.3777,3.58339 l 11.12769,0.0304 0.66531,-22.25 z m 32.5793,-12.75 0,-35 7.5,0 7.5,0 0,-16 0,-16 -3,0 c -2.66667,0 -3,-0.33333 -3,-3 l 0,-3 9.5,0 9.5,0 0,3 c 0,2.66667 -0.33333,3 -3,3 l -3,0 0,16 0,16 7,0 7,0 0,35 0,35 111.45295,0 c 79.55177,0 112.15042,-0.31779 113.88973,-1.11027 5.41641,-2.46789 5.13665,6.14319 5.422,-166.88973 0.18704,-113.41762 -0.0528,-161.26865 -0.81759,-163.12028 -0.59525,-1.44116 -2.19803,-3.12866 -3.56173,-3.75 -1.80912,-0.82429 -44.90017,-1.12972 -159.38536,-1.12972 -156.23627,0 -162,0.11245 -162,3.16051 0,0.46172 -0.675,0.83949 -1.5,0.83949 -1.32258,0 -1.5,11 -1.5,93 0,51.15 0.24908,93 0.55351,93 0.30443,0 7.53782,-7.01122 16.07419,-15.58048 8.53637,-8.56927 17.12509,-16.66927 19.08604,-18 4.49502,-3.05041 10.4111,-3.16016 23.91497,-0.44368 5.40214,1.08672 12.35941,2.26291 15.46059,2.61377 l 5.63852,0.63793 10.03383,13.73624 10.03383,13.73625 -5.26312,19.18203 c -2.89472,10.55012 -5.46269,19.3816 -5.7066,19.62551 -0.24391,0.24391 -2.70167,0.17603 -5.46169,-0.15086 l -5.01822,-0.59433 2.39484,-13.51342 c 1.31717,-7.43239 2.02685,-13.84545 1.57708,-14.25126 -0.44977,-0.40581 -4.38556,-1.91738 -8.74619,-3.35904 l -7.92842,-2.62122 -16.86757,16.80109 -16.86757,16.80108 1.88258,4.4402 c 1.03542,2.4421 5.84024,14.90228 10.67738,27.68928 l 8.79479,23.24909 -3.16382,24.75091 c -1.74009,13.613 -3.4243,26.21341 -3.74267,28.00091 l -0.57886,3.25 7.61129,0 7.61129,0 z m 31.20619,-47.16891 0.29381,-7.16891 20.5,-5.29839 c 25.01878,-6.46631 25,-6.45854 25,-10.34235 0,-3.00274 -0.0356,-3.02191 -5.75,-3.09795 -6.69733,-0.0891 -8.50669,-0.37296 -12.24306,-1.92061 -2.61135,-1.08166 -5.00694,-4.60915 -5.00694,-7.37268 0,-1.04834 7.49884,-5.6302 9.2146,-5.6302 0.27255,0 11.47326,-5.328 24.89047,-11.84 30.84116,-14.96866 40.20172,-19.43073 46.14493,-21.99672 4.79779,-2.07145 5.32475,-2.71166 3.97648,-4.83106 -0.88329,-1.38849 -12.62202,2.40042 -16.99821,5.48652 -1.50055,1.05819 -5.42827,3.14812 -8.72827,4.6443 -10.54246,4.77982 -27.73998,12.66222 -36.3481,16.65997 -4.59145,2.13234 -8.72429,3.87699 -9.18408,3.87699 -0.4598,0 -3.57694,1.18871 -6.92698,2.64159 -3.35005,1.45287 -6.32483,2.40775 -6.61064,2.12195 -0.2858,-0.28581 0.64789,-5.58929 2.07486,-11.78552 l 2.5945,-11.26588 9.78276,-12.35869 c 8.61483,-10.88323 11.37155,-13.54952 23.09079,-22.3333 7.31943,-5.48603 14.03228,-10.19114 14.91747,-10.45579 8.94358,-2.67395 24.45164,-5.37581 26.36864,-4.59402 2.22638,0.90795 3.81034,2.27515 17.78049,15.3472 6.20961,5.81042 7.66812,6.72398 9.87311,6.1842 1.42295,-0.34834 7.98718,-3.8234 14.58718,-7.72235 11.37087,-6.71735 12.30776,-7.0832 17.87023,-6.97828 4.4302,0.0836 7.07648,-0.50052 10.78749,-2.38103 2.7045,-1.37048 5.35039,-2.22408 5.87977,-1.89691 2.11925,1.30977 0.68072,3.57677 -5.08484,8.01327 -3.32605,2.55933 -7.08744,6.30093 -8.35865,8.31466 -1.65823,2.62681 -7.9824,7.43249 -22.38214,17.00802 -19.43537,12.92411 -20.09166,13.46992 -20.72847,17.23918 -0.94494,5.59308 -19.98649,49.80852 -22.15958,51.45568 -1.00309,0.76033 -3.89157,1.39672 -6.41882,1.41422 -5.40287,0.0374 -7.90499,-2.06445 -7.90499,-6.64039 0,-3.00643 2.7844,-12.13772 5.43622,-17.82781 0.76897,-1.65 1.7197,-4.73665 2.11273,-6.85921 0.64294,-3.47216 0.52588,-3.80248 -1.16717,-3.29351 -1.03498,0.31114 -5.03178,1.32599 -8.88178,2.25521 -3.85,0.92923 -7.5625,2.12891 -8.25,2.66595 -0.77817,0.60787 -1.27686,3.66685 -1.32115,8.104 -0.0391,3.92016 -0.39385,10.67875 -0.78825,15.0191 -1.02518,11.28175 -1.79139,11.80229 -27.90287,18.95637 -19.80538,5.42632 -21.26797,5.6811 -32.53154,5.66693 l -11.79381,-0.0148 0.29381,-7.16891 z m 99.09347,-80.53079 c 2.388,-1.26826 2.76944,-1.79197 1.50275,-2.06323 -1.99509,-0.42724 -5.80241,1.40878 -5.80241,2.79811 0,1.32902 0.60982,1.22479 4.29966,-0.73488 z M 253.53973,658.11235 c -3.79574,-0.87783 -10.19625,-9.18617 -11.07256,-14.37301 -0.37205,-2.20211 -1.2096,-3.80573 -1.98769,-3.80573 -3.92103,0 -2.00385,-8.27645 3.08507,-13.31819 4.99985,-4.95351 10.95231,-7.01613 18.27444,-6.33238 6.06963,0.56679 9.87491,2.41087 14.78132,7.16322 4.36523,4.22814 5.99146,14.84101 2.44654,15.96613 -1.06323,0.33746 -2.87906,2.56755 -4.03517,4.95576 -3.68905,7.62055 -12.8044,11.75335 -21.49195,9.7442 z m 154,-10 c -3.79574,-0.87783 -10.19625,-9.18617 -11.07256,-14.37301 -0.37205,-2.20211 -1.2096,-3.80573 -1.98769,-3.80573 -3.92103,0 -2.00385,-8.27645 3.08507,-13.31819 7.68014,-7.60897 20.11497,-8.75045 28.9683,-2.65921 5.33167,3.66829 7.51778,6.73069 8.40077,11.76818 0.84145,4.80043 0.34209,6.98653 -1.74791,7.65197 -0.92714,0.2952 -2.74577,2.53809 -4.04138,4.98421 -4.11776,7.77435 -12.93873,11.75591 -21.6046,9.75178 z m 65.46026,-51.17874 0,-36 -2.5,0 c -2.49123,0 -2.5,-0.0333 -2.5,-9.5 l 0,-9.5 7,0 7,0 0,9.5 c 0,9.46667 -0.009,9.5 -2.5,9.5 l -2.5,0 0,36 c 0,35.33333 -0.037,36 -2,36 -1.96296,0 -2,-0.66667 -2,-36 z m 19,-12 0,-48 -2.5,0 c -2.49123,0 -2.5,-0.0333 -2.5,-9.5 l 0,-9.5 7,0 7,0 0,9.5 c 0,9.46667 -0.009,9.5 -2.5,9.5 l -2.5,0 0,48 c 0,47.33333 -0.0278,48 -2,48 -1.97222,0 -2,-0.66667 -2,-48 z m 18,20.5 0,-27.5 -2.5,0 c -2.49123,0 -2.5,-0.0333 -2.5,-9.5 l 0,-9.5 7,0 7,0 0,9.5 c 0,9.46667 -0.009,9.5 -2.5,9.5 l -2.5,0 0,27.5 c 0,26.83333 -0.0485,27.5 -2,27.5 -1.95152,0 -2,-0.66667 -2,-27.5 z"
         style="fill:#000000;fill-opacity:0.20242915" />
    </g>
    <flowRoot
       xml:space="preserve"
       id="flowRoot3034-0"
       style="font-size:40px;font-style:normal;font-weight:normal;line-height:125%;letter-spacing:0px;word-spacing:0px;fill:#000000;fill-opacity:1;stroke:none;stroke-width:1.54682922000000000;stroke-miterlimit:4;stroke-opacity:1;stroke-dasharray:none;font-family:Sans;opacity:1;filter:url(#filter3909)"
       transform="matrix(3.2324188,0,0,3.2324188,-1016.7137,-1554.2287)"><flowRegion
         id="flowRegion3036-6"><rect
           id="rect3038-5"
           width="2084.9548"
           height="313.14728"
           x="103.03556"
           y="603.85443"
           style="fill:#000000;fill-opacity:1;stroke:none;stroke-width:1.54682922000000000;stroke-miterlimit:4;stroke-opacity:1;stroke-dasharray:none" /></flowRegion><flowPara
         id="flowPara3040-2"
         style="font-size:72px;font-style:normal;font-variant:normal;font-weight:500;font-stretch:normal;fill:#000000;fill-opacity:1;stroke:none;stroke-width:1.54682922000000000;stroke-miterlimit:4;stroke-opacity:1;stroke-dasharray:none;font-family:CMU Serif Extra;-inkscape-font-specification:CMU Serif Extra">Wettkampf-Manager</flowPara></flowRoot>    <flowRoot
       xml:space="preserve"
       id="flowRoot3034"
       style="font-size:40px;font-style:normal;font-weight:normal;line-height:125%;letter-spacing:0px;word-spacing:0px;fill:#ffffff;fill-opacity:1;stroke:#000000;stroke-width:1.54682927;stroke-miterlimit:4;stroke-opacity:1;stroke-dasharray:none;font-family:Sans"
       transform="matrix(3.2324188,0,0,3.2324188,-1017.286,-1555.4147)"><flowRegion
         id="flowRegion3036"><rect
           id="rect3038"
           width="2084.9548"
           height="313.14728"
           x="103.03556"
           y="603.85443"
           style="fill:#ffffff;fill-opacity:1;stroke:#000000;stroke-width:1.54682927;stroke-miterlimit:4;stroke-opacity:1;stroke-dasharray:none" /></flowRegion><flowPara
         id="flowPara3040"
         style="font-size:72px;font-style:normal;font-variant:normal;font-weight:500;font-stretch:normal;fill:#ffffff;fill-opacity:1;stroke:#000000;stroke-width:1.54682927;stroke-miterlimit:4;stroke-opacity:1;stroke-dasharray:none;font-family:CMU Serif Extra;-inkscape-font-specification:CMU Serif Extra">Wettkampf-Manager</flowPara></flowRoot>    <flowRoot
       xml:space="preserve"
       id="flowRoot3042"
       style="fill:black;stroke:none;stroke-opacity:1;stroke-width:1px;stroke-linejoin:miter;stroke-linecap:butt;fill-opacity:1;font-family:Sans;font-style:normal;font-weight:normal;font-size:40px;line-height:125%;letter-spacing:0px;word-spacing:0px"><flowRegion
         id="flowRegion3044"><rect
           id="rect3046"
           width="822.26416"
           height="171.72594"
           x="-92.934036"
           y="605.87476" /></flowRegion><flowPara
         id="flowPara3048" /></flowRoot>  </g>
</svg>
